<?xml version="1.0" encoding="UTF-8"?>
<svg xmlns="http://www.w3.org/2000/svg" xmlns:xlink="http://www.w3.org/1999/xlink" width="200px" height="200px" viewBox="0 0 200 200" version="1.1">
<g id="surface1">
<rect x="0" y="0" width="200" height="200" style="fill:rgb(100%,100%,100%);fill-opacity:1;stroke:none;"/>
<path style=" stroke:none;fill-rule:nonzero;fill:rgb(12.156863%,12.156863%,13.333334%);fill-opacity:1;" d="M 58.476562 151.320312 L 142.230469 151.320312 L 142.230469 151.867188 L 58.476562 151.867188 Z M 73.863281 159.464844 C 73.8125 159.191406 73.726562 158.941406 73.613281 158.726562 C 73.5 158.507812 73.34375 158.296875 73.144531 158.097656 C 72.855469 157.808594 72.515625 157.582031 72.136719 157.425781 C 71.378906 157.113281 70.492188 157.113281 69.730469 157.425781 C 69.355469 157.582031 69.015625 157.808594 68.726562 158.097656 C 68.527344 158.296875 68.371094 158.507812 68.257812 158.726562 C 68.144531 158.945312 68.058594 159.191406 68.007812 159.464844 C 67.953125 159.726562 67.925781 160.039062 67.914062 160.390625 C 67.90625 160.796875 67.902344 161.207031 67.902344 161.613281 C 67.902344 162.085938 67.90625 162.492188 67.914062 162.839844 C 67.925781 163.195312 67.953125 163.511719 68.007812 163.773438 C 68.058594 164.046875 68.144531 164.292969 68.257812 164.507812 C 68.371094 164.722656 68.53125 164.929688 68.726562 165.128906 C 69.015625 165.414062 69.355469 165.644531 69.730469 165.800781 C 70.113281 165.957031 70.523438 166.035156 70.9375 166.035156 C 71.355469 166.035156 71.761719 165.953125 72.140625 165.800781 C 72.515625 165.644531 72.855469 165.414062 73.144531 165.128906 C 73.34375 164.929688 73.5 164.71875 73.613281 164.507812 C 73.726562 164.292969 73.8125 164.046875 73.863281 163.773438 C 73.917969 163.507812 73.949219 163.191406 73.957031 162.839844 C 73.964844 162.492188 73.96875 162.085938 73.96875 161.613281 C 73.96875 161.140625 73.964844 160.734375 73.957031 160.390625 C 73.949219 160.042969 73.917969 159.730469 73.863281 159.464844 Z M 73.007812 161.613281 C 73.007812 162.058594 73.003906 162.4375 72.992188 162.753906 C 72.980469 163.058594 72.953125 163.328125 72.914062 163.554688 C 72.871094 163.769531 72.8125 163.957031 72.734375 164.109375 C 72.648438 164.273438 72.539062 164.417969 72.410156 164.546875 C 72.21875 164.738281 71.988281 164.890625 71.734375 164.992188 C 71.222656 165.195312 70.648438 165.195312 70.136719 164.992188 C 69.882812 164.890625 69.652344 164.742188 69.460938 164.546875 C 69.332031 164.417969 69.222656 164.273438 69.136719 164.109375 C 69.058594 163.957031 69 163.769531 68.957031 163.554688 C 68.917969 163.335938 68.890625 163.066406 68.878906 162.753906 C 68.867188 162.4375 68.859375 162.058594 68.859375 161.613281 C 68.859375 161.167969 68.867188 160.789062 68.878906 160.472656 C 68.890625 160.160156 68.917969 159.890625 68.957031 159.671875 C 69 159.457031 69.058594 159.269531 69.136719 159.113281 C 69.214844 158.960938 69.324219 158.8125 69.460938 158.679688 C 69.652344 158.484375 69.882812 158.332031 70.136719 158.230469 C 70.648438 158.027344 71.222656 158.027344 71.734375 158.230469 C 71.988281 158.332031 72.21875 158.484375 72.410156 158.679688 C 72.539062 158.804688 72.648438 158.953125 72.734375 159.113281 C 72.8125 159.269531 72.871094 159.457031 72.914062 159.671875 C 72.953125 159.894531 72.980469 160.164062 72.992188 160.472656 C 73.003906 160.789062 73.007812 161.167969 73.007812 161.613281 Z M 82.230469 161.300781 C 82.605469 160.886719 82.792969 160.335938 82.792969 159.671875 C 82.792969 159.289062 82.726562 158.945312 82.597656 158.644531 C 82.46875 158.339844 82.285156 158.082031 82.050781 157.878906 C 81.820312 157.679688 81.542969 157.523438 81.230469 157.417969 C 80.921875 157.3125 80.585938 157.261719 80.230469 157.261719 L 76.882812 157.261719 L 76.882812 165.964844 L 77.839844 165.964844 L 77.839844 162.101562 L 79.886719 162.101562 L 81.886719 165.964844 L 82.992188 165.964844 L 80.945312 162.042969 C 81.46875 161.917969 81.902344 161.667969 82.230469 161.300781 Z M 77.839844 158.148438 L 80.148438 158.148438 C 80.398438 158.148438 80.632812 158.179688 80.847656 158.242188 C 81.050781 158.304688 81.230469 158.398438 81.375 158.523438 C 81.519531 158.648438 81.632812 158.800781 81.714844 158.992188 C 81.796875 159.183594 81.835938 159.414062 81.835938 159.683594 C 81.835938 159.949219 81.796875 160.179688 81.714844 160.371094 C 81.632812 160.5625 81.519531 160.71875 81.375 160.84375 C 81.230469 160.96875 81.050781 161.0625 80.847656 161.121094 C 80.632812 161.183594 80.398438 161.21875 80.148438 161.21875 L 77.839844 161.21875 Z M 85.429688 157.261719 L 86.386719 157.261719 L 86.386719 165.964844 L 85.429688 165.964844 Z M 90.261719 159.671875 C 90.300781 159.457031 90.359375 159.269531 90.441406 159.113281 C 90.523438 158.953125 90.632812 158.804688 90.761719 158.679688 C 90.957031 158.484375 91.1875 158.335938 91.4375 158.234375 C 91.691406 158.128906 91.964844 158.078125 92.238281 158.078125 C 92.769531 158.078125 93.203125 158.230469 93.574219 158.546875 C 93.941406 158.859375 94.1875 159.292969 94.304688 159.835938 L 94.332031 159.960938 L 95.289062 159.960938 L 95.253906 159.773438 C 95.191406 159.390625 95.066406 159.035156 94.890625 158.714844 C 94.71875 158.40625 94.496094 158.128906 94.226562 157.898438 C 93.957031 157.675781 93.652344 157.496094 93.324219 157.378906 C 92.628906 157.121094 91.765625 157.125 91.035156 157.425781 C 90.660156 157.582031 90.316406 157.808594 90.027344 158.097656 C 89.832031 158.296875 89.671875 158.507812 89.558594 158.726562 C 89.445312 158.945312 89.363281 159.191406 89.308594 159.464844 C 89.257812 159.726562 89.226562 160.039062 89.214844 160.390625 C 89.207031 160.796875 89.203125 161.203125 89.207031 161.613281 C 89.207031 162.085938 89.210938 162.492188 89.214844 162.839844 C 89.226562 163.195312 89.257812 163.511719 89.308594 163.773438 C 89.363281 164.046875 89.445312 164.292969 89.558594 164.507812 C 89.671875 164.722656 89.832031 164.929688 90.027344 165.128906 C 90.316406 165.414062 90.65625 165.644531 91.035156 165.796875 C 91.417969 165.957031 91.824219 166.035156 92.238281 166.035156 C 92.683594 166.035156 93.113281 165.945312 93.515625 165.765625 C 93.910156 165.59375 94.265625 165.339844 94.554688 165.019531 C 94.820312 164.734375 95.011719 164.417969 95.121094 164.074219 C 95.226562 163.738281 95.28125 163.335938 95.28125 162.882812 L 95.28125 161.355469 L 92.078125 161.355469 L 92.078125 162.246094 L 94.324219 162.246094 L 94.324219 162.835938 C 94.324219 163.179688 94.285156 163.476562 94.214844 163.71875 C 94.136719 163.964844 94.015625 164.191406 93.855469 164.390625 C 93.660156 164.632812 93.410156 164.828125 93.125 164.953125 C 92.589844 165.195312 91.984375 165.210938 91.4375 164.992188 C 91.183594 164.890625 90.957031 164.742188 90.761719 164.546875 C 90.632812 164.417969 90.523438 164.273438 90.441406 164.109375 C 90.359375 163.957031 90.300781 163.769531 90.261719 163.554688 C 90.21875 163.335938 90.191406 163.066406 90.179688 162.753906 C 90.167969 162.4375 90.164062 162.058594 90.164062 161.613281 C 90.164062 161.167969 90.167969 160.789062 90.179688 160.472656 C 90.191406 160.160156 90.21875 159.890625 90.261719 159.671875 Z M 97.949219 157.261719 L 98.90625 157.261719 L 98.90625 165.964844 L 97.949219 165.964844 Z M 107.683594 164.152344 L 103.09375 157.261719 L 102.214844 157.261719 L 102.214844 165.964844 L 103.171875 165.964844 L 103.171875 159.050781 L 107.757812 165.964844 L 108.644531 165.964844 L 108.644531 157.261719 L 107.683594 157.261719 Z M 114.5625 157.261719 L 113.773438 157.261719 L 110.570312 165.964844 L 111.597656 165.964844 L 112.328125 163.925781 L 116.007812 163.925781 L 116.734375 165.964844 L 117.761719 165.964844 L 114.601562 157.367188 Z M 115.691406 163.039062 L 112.644531 163.039062 L 114.167969 158.75 Z M 120.714844 157.261719 L 119.753906 157.261719 L 119.753906 165.964844 L 125.160156 165.964844 L 125.160156 165.078125 L 120.714844 165.078125 Z M 132.496094 162.558594 C 132.363281 162.265625 132.164062 162.007812 131.917969 161.800781 C 131.824219 161.726562 131.730469 161.65625 131.628906 161.59375 C 131.523438 161.527344 131.410156 161.472656 131.289062 161.425781 C 131.15625 161.375 131.015625 161.335938 130.871094 161.308594 C 130.699219 161.269531 130.523438 161.238281 130.34375 161.210938 L 129.441406 161.070312 C 129.21875 161.03125 128.996094 160.96875 128.785156 160.886719 C 128.578125 160.800781 128.40625 160.699219 128.273438 160.585938 C 128.015625 160.375 127.894531 160.054688 127.894531 159.613281 C 127.894531 159.125 128.042969 158.746094 128.351562 158.464844 C 128.660156 158.1875 129.105469 158.042969 129.671875 158.042969 C 129.914062 158.042969 130.128906 158.0625 130.3125 158.097656 C 130.496094 158.136719 130.664062 158.183594 130.8125 158.25 C 130.953125 158.308594 131.089844 158.382812 131.214844 158.472656 C 131.347656 158.5625 131.476562 158.667969 131.601562 158.78125 L 131.714844 158.878906 L 132.359375 158.238281 L 132.226562 158.125 C 131.855469 157.800781 131.472656 157.5625 131.089844 157.414062 C 130.710938 157.265625 130.246094 157.191406 129.707031 157.191406 C 128.863281 157.191406 128.1875 157.414062 127.695312 157.851562 C 127.199219 158.292969 126.949219 158.894531 126.949219 159.648438 C 126.949219 160.351562 127.1875 160.914062 127.660156 161.3125 C 128.042969 161.644531 128.574219 161.863281 129.238281 161.960938 L 130.21875 162.113281 C 130.382812 162.136719 130.523438 162.160156 130.636719 162.1875 C 130.75 162.214844 130.847656 162.242188 130.933594 162.269531 C 131.011719 162.296875 131.078125 162.332031 131.136719 162.371094 C 131.203125 162.414062 131.273438 162.464844 131.34375 162.519531 C 131.617188 162.765625 131.746094 163.113281 131.746094 163.578125 C 131.746094 164.078125 131.578125 164.457031 131.234375 164.726562 C 130.878906 165.007812 130.382812 165.148438 129.753906 165.148438 C 129.515625 165.148438 129.289062 165.132812 129.089844 165.101562 C 128.898438 165.074219 128.714844 165.019531 128.535156 164.949219 C 128.351562 164.871094 128.179688 164.773438 128.019531 164.660156 C 127.851562 164.539062 127.675781 164.390625 127.492188 164.207031 L 127.378906 164.09375 L 126.703125 164.765625 L 126.816406 164.878906 C 127.003906 165.066406 127.207031 165.238281 127.421875 165.394531 C 127.628906 165.539062 127.855469 165.660156 128.089844 165.757812 C 128.324219 165.851562 128.578125 165.921875 128.839844 165.96875 C 129.101562 166.011719 129.398438 166.035156 129.71875 166.035156 C 130.632812 166.035156 131.367188 165.8125 131.894531 165.371094 C 132.433594 164.925781 132.707031 164.3125 132.707031 163.550781 C 132.707031 163.191406 132.636719 162.855469 132.496094 162.558594 Z M 152.882812 117.160156 C 152.882812 116.914062 152.773438 116.683594 152.601562 116.597656 C 152.402344 116.488281 152.207031 116.457031 151.953125 116.457031 L 150.800781 116.457031 L 150.800781 119.082031 L 151.136719 119.082031 L 151.136719 117.867188 L 151.730469 117.867188 L 152.492188 119.082031 L 152.886719 119.082031 L 152.09375 117.867188 C 152.515625 117.867188 152.882812 117.699219 152.882812 117.160156 Z M 151.644531 117.617188 L 151.136719 117.617188 L 151.136719 116.683594 L 151.871094 116.683594 C 152.238281 116.683594 152.578125 116.738281 152.578125 117.160156 C 152.578125 117.699219 151.984375 117.617188 151.644531 117.617188 Z M 151.644531 117.617188 "/>
<path style=" stroke:none;fill-rule:nonzero;fill:rgb(12.156863%,12.156863%,13.333334%);fill-opacity:1;" d="M 151.703125 115.445312 L 151.671875 115.445312 C 150.398438 115.445312 149.363281 116.484375 149.363281 117.757812 C 149.363281 119.054688 150.378906 120.121094 151.703125 120.121094 C 153 120.121094 154.042969 119.054688 154.042969 117.757812 C 154.042969 116.488281 153 115.445312 151.703125 115.445312 Z M 151.699219 119.839844 C 150.570312 119.839844 149.617188 118.910156 149.617188 117.757812 C 149.617188 116.632812 150.570312 115.726562 151.699219 115.726562 C 152.816406 115.734375 153.722656 116.636719 153.730469 117.757812 C 153.730469 118.910156 152.800781 119.839844 151.699219 119.839844 Z M 88.992188 120.320312 L 93.175781 120.320312 L 93.175781 115.496094 L 88.992188 115.496094 Z M 88.992188 140.789062 L 93.175781 140.789062 L 93.175781 121.644531 L 88.992188 121.644531 Z M 131.871094 123.484375 C 130.3125 122.316406 128.339844 121.617188 126.207031 121.617188 C 120.855469 121.617188 116.519531 125.949219 116.519531 131.269531 C 116.519531 136.613281 120.855469 140.945312 126.207031 140.945312 C 128.339844 140.945312 130.3125 140.269531 131.871094 139.078125 L 131.921875 140.789062 L 136.078125 140.789062 L 136.078125 121.644531 L 131.871094 121.644531 Z M 126.328125 136.65625 L 126.308594 136.65625 C 123.324219 136.65625 120.9375 134.273438 120.9375 131.269531 C 120.9375 128.289062 123.324219 125.882812 126.308594 125.882812 C 129.265625 125.882812 131.679688 128.289062 131.679688 131.269531 C 131.695312 134.230469 129.296875 136.644531 126.328125 136.65625 Z M 147.269531 129.089844 C 146.414062 129.035156 142.910156 128.855469 142.910156 126.804688 C 142.910156 125.429688 145.222656 125.070312 146.285156 125.070312 C 148.308594 125.070312 149.582031 126.207031 149.816406 127.792969 L 154.023438 127.761719 C 153.921875 124.054688 150.675781 121.511719 146.390625 121.535156 C 141.222656 121.566406 138.597656 124.210938 138.597656 127.558594 C 138.597656 129.425781 139.636719 130.515625 140.855469 131.476562 C 141.945312 132.382812 144.574219 132.851562 145.945312 133.007812 C 148.390625 133.265625 150.078125 133.65625 150.078125 135.472656 C 150.078125 136.613281 148.4375 137.597656 146.128906 137.597656 C 144.855469 137.597656 142.59375 136.792969 142.363281 134.636719 L 138.234375 134.636719 C 138.726562 139.207031 142.464844 141.230469 146.15625 141.230469 C 147.820312 141.230469 150.546875 140.839844 151.871094 139.882812 C 153.429688 138.738281 154.519531 137.132812 154.519531 134.976562 C 154.519531 132.074219 152.882812 129.609375 147.269531 129.089844 Z M 60.609375 123.484375 C 59.050781 122.316406 57.078125 121.617188 54.945312 121.617188 C 49.59375 121.617188 45.261719 125.949219 45.261719 131.269531 C 45.261719 136.613281 49.59375 140.945312 54.945312 140.945312 C 57.078125 140.945312 59.050781 140.269531 60.609375 139.078125 L 60.664062 140.789062 L 64.816406 140.789062 L 64.816406 121.644531 L 60.609375 121.644531 Z M 55.070312 136.65625 L 55.046875 136.65625 C 52.066406 136.65625 49.675781 134.273438 49.675781 131.269531 C 49.675781 128.289062 52.066406 125.882812 55.046875 125.882812 C 58.003906 125.882812 60.421875 128.289062 60.421875 131.269531 C 60.433594 134.230469 58.035156 136.644531 55.070312 136.65625 Z M 110.542969 115.523438 L 110.542969 123.484375 C 108.980469 122.316406 107.007812 121.617188 104.875 121.617188 C 99.527344 121.617188 95.191406 125.949219 95.191406 131.269531 C 95.191406 136.613281 99.527344 140.945312 104.875 140.945312 C 107.007812 140.945312 108.980469 140.269531 110.542969 139.078125 L 110.59375 140.789062 L 114.746094 140.789062 L 114.746094 115.519531 L 110.542969 115.519531 Z M 105 136.65625 L 104.976562 136.65625 C 101.996094 136.65625 99.605469 134.273438 99.605469 131.269531 C 99.605469 128.289062 101.996094 125.882812 104.976562 125.882812 C 107.933594 125.882812 110.351562 128.289062 110.351562 131.269531 C 110.363281 134.230469 107.964844 136.644531 105 136.65625 Z M 82.0625 115.523438 L 82.0625 123.484375 C 80.503906 122.316406 78.527344 121.617188 76.394531 121.617188 C 71.046875 121.617188 66.710938 125.949219 66.710938 131.269531 C 66.710938 136.613281 71.046875 140.945312 76.394531 140.945312 C 78.527344 140.945312 80.5 140.269531 82.0625 139.078125 L 82.113281 140.789062 L 86.265625 140.789062 L 86.265625 115.519531 L 82.0625 115.519531 Z M 76.519531 136.65625 L 76.496094 136.65625 C 73.515625 136.65625 71.125 134.273438 71.125 131.269531 C 71.125 128.289062 73.515625 125.882812 76.496094 125.882812 C 79.453125 125.882812 81.871094 128.289062 81.871094 131.269531 C 81.882812 134.230469 79.488281 136.644531 76.519531 136.65625 Z M 100.351562 79.648438 L 114.160156 79.648438 C 114.488281 77.15625 114.667969 74.617188 114.667969 72.035156 C 114.667969 57.445312 109.257812 44.132812 100.351562 33.964844 C 91.445312 44.132812 86.039062 57.445312 86.039062 72.035156 C 86.039062 74.617188 86.214844 77.15625 86.542969 79.648438 Z M 93.75 100.859375 C 95.652344 104.160156 97.859375 107.261719 100.351562 110.105469 C 102.847656 107.261719 105.050781 104.160156 106.957031 100.859375 Z M 79.589844 73.875 C 70.621094 63.554688 58.570312 57.449219 45.964844 55.71875 C 45.898438 63.886719 47.691406 72.085938 51.375 79.648438 L 83.964844 79.648438 C 82.636719 77.628906 81.175781 75.699219 79.589844 73.875 Z M 69.847656 100.859375 C 76.820312 105.542969 84.6875 108.472656 92.789062 109.585938 C 92.8125 106.671875 92.589844 103.753906 92.140625 100.859375 Z M 121.113281 73.875 C 119.527344 75.699219 118.066406 77.628906 116.738281 79.648438 L 149.332031 79.648438 C 153.015625 72.085938 154.804688 63.886719 154.738281 55.71875 C 142.132812 57.449219 130.085938 63.554688 121.113281 73.875 Z M 107.914062 109.585938 C 116.015625 108.472656 123.882812 105.542969 130.855469 100.859375 L 108.5625 100.859375 C 108.113281 103.753906 107.890625 106.671875 107.914062 109.585938 Z M 100.351562 92.703125 L 60.320312 92.703125 C 61.554688 94.035156 62.851562 95.304688 64.210938 96.507812 L 136.496094 96.507812 C 137.855469 95.304688 139.152344 94.035156 140.382812 92.703125 Z M 100.351562 84 L 53.75 84 C 54.660156 85.496094 55.640625 86.949219 56.695312 88.351562 L 144.011719 88.351562 C 145.0625 86.949219 146.046875 85.496094 146.957031 84 Z M 100.351562 84 "/>
</g>
</svg>
