<?xml version="1.0" encoding="UTF-8"?>
<svg id="LogoBajaj" xmlns="http://www.w3.org/2000/svg" viewBox="0 0 137 68">
  <defs>
    <style>
      .cls-1 {
        stroke-width: .2px;
      }

      .cls-1, .cls-2, .cls-3 {
        stroke: #fff;
        stroke-miterlimit: 10;
      }

      .cls-1, .cls-2, .cls-3, .cls-4, .cls-5 {
        fill: #fff;
      }

      .cls-2 {
        stroke-width: .27px;
      }

      .cls-3 {
        stroke-width: .67px;
      }

      .cls-4 {
        fill-rule: evenodd;
      }

      .cls-4, .cls-5 {
        stroke-width: 0px;
      }
    </style>
  </defs>
  <g>
    <path class="cls-5" d="M58.86,63.13H.61V4.87h58.25v58.25ZM1.13,62.61h57.21V5.39H1.13v57.21Z"/>
    <path class="cls-4" d="M23.86,26.72l-2.91-1.32v-3.51l6.7,3.08,1.81-.82c.11-.05.22-.16.22-.27s-.11-.22-.22-.33l-6.04-2.75,5.33-2.47c.11-.06.27-.11.44-.11s.33.05.44.11l8.07,3.68c.38.16.82.38.82.88s-.44.71-.82.88l-6.37,2.91,6.37,2.91c.38.16.82.38.82.88s-.44.71-.82.88l-8.07,3.68c-.11.06-.27.11-.44.11s-.33-.05-.44-.11l-5.38-2.42,6.04-2.75c.11-.05.22-.16.22-.33,0-.11-.11-.22-.22-.27l-1.81-.82-6.65,3.08v-3.46l2.91-1.32Z"/>
    <path class="cls-4" d="M6.7,47.04h0ZM4.22,50.3v-7.77h6.77c1.39,0,3.64.19,3.64,2.03,0,.92-.78,1.56-1.7,1.79,1.13.36,1.7.99,1.7,1.86,0,1.9-2.15,2.09-3.64,2.1h-6.77ZM6.7,47.04l.72-1.2c.14-.26.49-.44.8-.44h2.76c.49,0,.9-.23.9-.61s-.4-.62-.9-.62h-4.29v2.88h0ZM6.7,47.04v3.27l.72-1.2c.14-.25.49-.43.8-.43h2.74c.51,0,.92-.37.92-.81s-.4-.81-.92-.81h-4.26ZM20.63,44.4l-3.35,5.9h-2.91l4.67-7.77h3.19l4.68,7.77h-2.92l-.79-1.38h-4.32l.72-1.2c.14-.26.49-.44.8-.44h1.87l-1.64-2.89h0ZM40.96,44.4l-3.37,5.9h-2.92l4.68-7.77h3.19l4.68,7.77h-2.92l-.8-1.38h-4.32l.71-1.2c.15-.26.5-.44.81-.44h1.88l-1.64-2.89h0ZM31.42,48.66c.57,0,1.02-.28,1.02-.84v-5.3h2.49v5.52c0,1.68-1.1,2.25-2.52,2.25h-4.14c-.31,0-.65-.19-.81-.44l-.71-1.19h4.66ZM51.74,48.66c.56,0,1.02-.28,1.02-.84v-5.3h2.49v5.52c0,1.68-1.1,2.25-2.53,2.25h-4.12c-.31,0-.66-.19-.82-.44l-.72-1.19h4.69Z"/>
  </g>
  <polygon class="cls-5" points="65.74 36.07 65.74 38.37 61.77 39.07 61.77 31.13 64.07 30.73 64.07 36.37 65.74 36.07"/>
  <path class="cls-5" d="M69.69,29.58c.57-.1,1.1-.09,1.6.04.5.13.94.34,1.31.65.37.31.67.69.88,1.15.22.46.32.98.32,1.55s-.11,1.12-.32,1.66c-.22.54-.51,1.03-.88,1.47-.37.44-.81.81-1.31,1.11-.5.3-1.04.51-1.6.61-.57.1-1.1.09-1.6-.04-.5-.13-.94-.34-1.31-.65-.37-.31-.67-.69-.88-1.15-.22-.46-.32-.98-.32-1.55s.11-1.12.32-1.66c.22-.54.51-1.03.88-1.47.37-.44.81-.81,1.31-1.11.5-.3,1.03-.51,1.6-.61M71.45,33.37c0-.24-.05-.46-.14-.65-.09-.2-.21-.36-.37-.48-.15-.13-.34-.22-.55-.27-.21-.05-.44-.06-.68-.02-.24.04-.47.13-.68.26-.21.13-.4.28-.55.47-.16.18-.28.39-.37.61-.09.23-.14.46-.14.7s.05.46.14.65c.09.2.22.36.37.49.16.13.34.22.55.27.21.05.44.06.68.02.24-.04.47-.13.68-.26.21-.13.39-.28.55-.47.15-.18.28-.39.37-.62.09-.23.14-.46.14-.7"/>
  <polygon class="cls-5" points="78.14 28.45 80.65 28 78.53 36.24 75.73 36.74 73.6 29.25 76.12 28.8 77.13 32.56 78.14 28.45"/>
  <polygon class="cls-5" points="86.41 32.62 86.41 34.92 80.9 35.9 80.9 27.96 86.41 26.98 86.41 29.28 83.2 29.85 83.2 30.56 85.88 30.09 85.88 32.01 83.2 32.49 83.2 33.19 86.41 32.62"/>
  <path class="cls-5" d="M89.17,26.49c.55-.1,1.06-.08,1.54.04.48.12.9.33,1.26.63.36.3.64.67.85,1.11.21.44.31.94.31,1.48s-.1,1.08-.31,1.6c-.21.52-.49.99-.85,1.42-.36.43-.78.78-1.26,1.08-.48.29-1,.49-1.54.59l-2.3.41v-7.94l2.3-.41ZM89.17,32.11c.23-.04.45-.12.66-.24.21-.12.39-.27.54-.45.15-.18.27-.37.36-.59.09-.22.13-.45.13-.68s-.04-.45-.13-.63c-.09-.19-.21-.35-.36-.47-.15-.12-.33-.21-.54-.26-.21-.05-.43-.06-.66-.01v3.34Z"/>
  <polygon class="cls-5" points="94.86 28.62 96.97 28.25 96.97 29.5 96.62 29.56 96.62 31.92 96.97 31.86 96.97 33.11 94.86 33.48 94.86 32.23 95.21 32.17 95.21 29.81 94.86 29.87 94.86 28.62"/>
  <polygon class="cls-5" points="100.98 27.54 100.98 32.4 99.64 32.64 98.68 31.05 98.68 32.81 97.37 33.04 97.37 28.18 98.71 27.94 99.55 29.7 99.55 27.79 100.98 27.54"/>
  <path class="cls-5" d="M71.22,47.68c-.04.06-.09.14-.15.23-.06.09-.13.18-.2.26-.07.09-.14.17-.21.25-.07.08-.13.14-.17.19-.51.52-1.06.95-1.67,1.27-.61.33-1.23.55-1.86.66-.7.12-1.39.1-2.08-.07-.69-.17-1.29-.48-1.81-.92-.44-.41-.78-.89-1.01-1.44-.23-.55-.34-1.13-.34-1.74,0-.7.15-1.4.44-2.11.29-.71.72-1.36,1.28-1.96.5-.52,1.05-.94,1.65-1.27.6-.33,1.21-.55,1.83-.66.73-.13,1.43-.11,2.12.05.69.16,1.29.49,1.81.98l-2.18,2.29c-.24-.21-.51-.36-.81-.43-.3-.07-.61-.08-.92-.02-.55.1-1.06.38-1.52.83-.24.25-.42.54-.55.86-.13.32-.19.62-.19.92,0,.27.05.52.14.77.1.24.25.45.45.63.23.22.49.36.79.43.29.07.6.08.91.03.27-.05.53-.14.8-.28.27-.14.5-.32.72-.55.06-.06.13-.13.19-.22.06-.09.11-.16.14-.21l2.41,1.24Z"/>
  <path class="cls-5" d="M76.21,38.64c.72-.13,1.39-.11,2.02.05.63.16,1.18.43,1.65.82.47.39.84.87,1.11,1.45.27.58.41,1.23.41,1.95s-.14,1.41-.41,2.09c-.27.68-.64,1.29-1.11,1.84-.47.55-1.02,1.02-1.65,1.4-.63.38-1.3.64-2.02.76-.72.13-1.39.11-2.02-.05-.63-.16-1.18-.43-1.65-.82-.47-.38-.84-.87-1.11-1.45-.27-.58-.41-1.23-.41-1.95s.14-1.41.41-2.09c.27-.68.64-1.29,1.11-1.84.47-.55,1.02-1.02,1.65-1.4.63-.38,1.3-.64,2.02-.76M78.43,43.41c0-.3-.06-.58-.17-.82-.11-.25-.27-.45-.46-.61-.19-.16-.42-.27-.69-.34-.27-.07-.55-.07-.86-.02-.3.05-.59.16-.85.32-.27.16-.5.36-.7.59-.2.23-.35.49-.47.77-.12.29-.17.58-.17.89s.06.58.17.82c.11.25.27.45.47.61.2.16.43.28.7.35.27.07.55.07.85.02.3-.05.59-.16.86-.32.27-.16.5-.36.69-.59.19-.23.35-.49.46-.78.12-.29.17-.58.17-.89"/>
  <path class="cls-5" d="M89.5,36.48v6.38c0,.51-.1,1.02-.3,1.51-.2.49-.48.93-.82,1.33-.34.4-.75.73-1.21,1.01-.46.28-.95.46-1.46.55-.51.09-1,.08-1.45-.04-.46-.12-.85-.31-1.2-.59-.34-.27-.62-.62-.82-1.04-.2-.42-.3-.89-.3-1.4v-6.38l2.9-.51v6.25c0,.23.09.41.27.55.18.14.38.19.61.15.24-.04.45-.16.63-.37.18-.2.27-.42.27-.65v-6.25l2.9-.51Z"/>
  <polygon class="cls-5" points="97.75 35.02 97.75 45.01 94.99 45.5 93.02 42.24 93.02 45.85 90.33 46.33 90.33 36.33 93.07 35.84 94.81 39.47 94.81 35.54 97.75 35.02"/>
  <polygon class="cls-5" points="105.37 33.67 105.37 36.56 103.39 36.91 103.39 44.01 100.49 44.53 100.49 37.43 98.49 37.78 98.49 34.88 105.37 33.67"/>
  <path class="cls-5" d="M114.56,42.04l-3.12.55c-.41-.53-.76-.96-1.03-1.27-.27-.31-.49-.55-.66-.7-.17-.15-.3-.24-.38-.26-.08-.02-.14,0-.17.04-.03.05-.05.12-.05.21v2.39l-2.9.51v-10l3.79-.67c.44-.08.88-.05,1.3.09.43.14.8.34,1.11.6.37.3.64.67.82,1.11.18.44.26.9.26,1.39-.01.49-.11.99-.31,1.5-.2.51-.48.98-.85,1.43l2.18,3.09ZM110.74,36.4c0-.27-.09-.47-.28-.63-.18-.15-.41-.2-.68-.16l-.66.12v1.92l.66-.12c.27-.05.49-.18.68-.4.18-.22.28-.46.28-.73"/>
  <polygon class="cls-5" points="114.87 31.98 119.2 31.22 119.2 33.8 118.49 33.92 118.49 38.76 119.2 38.63 119.2 41.21 114.87 41.98 114.87 39.4 115.59 39.27 115.59 34.44 114.87 34.56 114.87 31.98"/>
  <polygon class="cls-5" points="126.97 36.94 126.97 39.84 120.03 41.07 120.03 31.07 126.97 29.84 126.97 32.74 122.92 33.45 122.92 34.35 126.3 33.75 126.3 36.18 122.92 36.78 122.92 37.66 126.97 36.94"/>
  <path class="cls-5" d="M131.12,29.01c.49-.1.97-.17,1.45-.2.48-.03.97,0,1.47.09-.02.16-.03.28-.03.35v.34c0,.15,0,.38-.01.69,0,.31-.03.78-.07,1.41-.29-.07-.63-.12-1.02-.15-.39-.03-.74-.04-1.06-.03-.18.01-.36.05-.53.11-.17.06-.32.15-.45.27-.1.12-.12.23-.05.33.07.1.15.17.26.22l1.57.23c.33.04.63.13.91.27.28.13.51.31.72.51.2.21.36.45.48.72.12.27.17.58.17.91,0,.49-.07.94-.23,1.36-.16.42-.38.8-.67,1.14-.29.34-.63.63-1.03.88-.4.25-.83.44-1.3.58-.06.02-.16.04-.29.07-.13.03-.27.05-.41.08-.28.06-.54.1-.8.13-.26.03-.49.04-.7.03-.25-.01-.5-.03-.77-.07-.26-.04-.6-.1-1.01-.18l.66-3.08c.14.02.28.05.41.07.14.03.28.05.41.08l.65.12c.21.05.42.09.63.12.21.04.43.03.67,0,.15-.04.27-.09.37-.17.1-.08.16-.2.18-.36,0-.11-.03-.2-.1-.28-.06-.08-.15-.14-.24-.18-.1-.04-.2-.08-.31-.1-.11-.02-.22-.04-.32-.05-.43-.02-.83-.12-1.19-.29-.36-.17-.67-.39-.93-.65-.26-.26-.47-.56-.62-.89-.15-.33-.23-.68-.23-1.04,0-.29.04-.59.12-.88.08-.29.21-.57.39-.83.18-.27.4-.51.68-.74.27-.23.6-.42.97-.58.41-.18.81-.31,1.19-.38"/>
  <polygon class="cls-5" points="92.55 23.78 61.75 28.93 61.74 29.35 92.55 24.19 92.55 23.78"/>
  <polygon class="cls-5" points="136.38 40.24 62.41 53.35 62.42 53.83 136.39 40.72 136.38 40.24"/>
  <g>
    <g>
      <path class="cls-5" d="M116.18,14.79c-1.85.26-3.53,1.16-4.82,2.45.32-.08.68-.16,1.09-.25h0c.8-.18,1.58-.33,2.37-.45.44-.16.9-.28,1.38-.35.59-.08,1.16-.08,1.7,0,.18.12.35.26.52.41-.47.09-.72.2-.74.21l.05.16s.3-.13.85-.22c.49.47.94,1.04,1.32,1.7-1.81.37-3.36,1.24-3.38,1.26l.07.15s1.59-.9,3.4-1.25c.33.59.6,1.24.81,1.95.07.22.12.44.18.67-.64.11-1.24.29-1.75.47l.04.16c.5-.18,1.11-.36,1.75-.47.24,1.1.29,2.19.17,3.2-1.07.14-2.06.41-2.95.75-.15-.53-.3-.88-.3-.89l-.16.09s.15.35.29.87c-1.07.42-1.99.93-2.71,1.4-.37.24-.7.48-1,.71-.15-.2-.29-.41-.44-.64l-.15.11c.15.23.29.45.44.65-.3.24-.57.46-.79.66-1.07-.44-1.96-1.21-2.54-2.22,1-.14,1.99-.2,2.98-.17.09,0,.18-.01.27-.05.09-.03.17-.08.23-.14,1.26-1.18,2.52-2.36,3.79-3.53.19-.18.41-.38.32-.69-.09-.31-.36-.35-.62-.38-1.42-.11-2.81-.11-4.26,0,1.06-1.18,2.14-2.35,3.23-3.5.22-.23.45-.46.36-.77-.09-.31-.4-.3-.66-.29-1.37.12-2.69.33-4.02.64,0,0,0,0,0,0-.45.1-.94.22-1.36.32-.3.32-.58.67-.84,1.04h0c-.51.74-.92,1.56-1.18,2.42l1.58-.44s0,0,0,0c.45-.12.87-.24,1.05-.28.09-.02.18,0,.21.06.02.06,0,.14-.06.22-.34.41-.51.62-.85,1.02-.32.07-.89.2-1.37.31l-.82.19c-.07.45-.11.9-.11,1.36,0,.03,0,.05,0,.08,0,0,0,0,0,0,0,.06,0,.12,0,.19h0s0,.02,0,.02l.87-.27h0s-.81.91-.81.91c0,0,0,0,0,.01h0c.08.64.25,1.24.48,1.8h0s0,0,0,0c.09-.12.32-.39.6-.74l.46-.56s0,0,0,0c.56-.69,1.18-1.43,1.43-1.72.47-.07.71-.1,1.18-.15.09,0,.16.02.19.08.03.07,0,.14-.06.21-.79.84-1.58,1.69-2.37,2.54-.12-.23-.22-.47-.3-.72l-1.05,1.27c1.19,2.58,3.91,4.13,7.05,3.69,4.18-.58,7.51-4.46,7.44-8.66s-3.51-7.14-7.68-6.56ZM118.65,16.56c-.11-.1-.23-.2-.35-.3.28.06.54.14.8.25-.17.01-.32.03-.46.05ZM118.81,16.71c.19-.02.41-.04.65-.05.78.37,1.44.93,1.95,1.62-.44,0-.89.05-1.32.12-.37-.65-.8-1.22-1.28-1.69ZM120.96,20.47c-.21-.69-.47-1.33-.79-1.91.45-.08.91-.12,1.36-.11.5.75.83,1.65.91,2.64-.43-.02-.87.02-1.3.08-.05-.24-.12-.47-.19-.71ZM113.58,28.32c.21-.18.45-.38.72-.59.29.37.58.68.88.93-.56-.04-1.1-.15-1.6-.34ZM118.28,28.05c-.59.28-1.23.47-1.89.56-.31.04-.61.06-.91.06-.36-.26-.71-.61-1.05-1.05.3-.23.63-.46.99-.7.71-.46,1.62-.96,2.67-1.38.18.69.33,1.62.18,2.51ZM118.47,27.96c.1-.7.03-1.41-.07-1.96-.04-.19-.08-.36-.12-.53.87-.33,1.84-.6,2.88-.73-.06.44-.15.86-.27,1.26-.66.81-1.48,1.49-2.42,1.96ZM121.15,25.65c.07-.3.13-.61.18-.92.13-.02.27-.03.4-.04-.17.34-.36.66-.58.96ZM121.82,24.51c-.16.01-.31.03-.47.04.11-1.01.07-2.1-.17-3.2.42-.06.85-.09,1.27-.07,0,.09,0,.18.01.27.02,1.03-.22,2.04-.65,2.97Z"/>
      <path class="cls-1" d="M116.18,14.79c-1.85.26-3.53,1.16-4.82,2.45.32-.08.68-.16,1.09-.25h0c.8-.18,1.58-.33,2.37-.45.44-.16.9-.28,1.38-.35.59-.08,1.16-.08,1.7,0,.18.12.35.26.52.41-.47.09-.72.2-.74.21l.05.16s.3-.13.85-.22c.49.47.94,1.04,1.32,1.7-1.81.37-3.36,1.24-3.38,1.26l.07.15s1.59-.9,3.4-1.25c.33.59.6,1.24.81,1.95.07.22.12.44.18.67-.64.11-1.24.29-1.75.47l.04.16c.5-.18,1.11-.36,1.75-.47.24,1.1.29,2.19.17,3.2-1.07.14-2.06.41-2.95.75-.15-.53-.3-.88-.3-.89l-.16.09s.15.35.29.87c-1.07.42-1.99.93-2.71,1.4-.37.24-.7.48-1,.71-.15-.2-.29-.41-.44-.64l-.15.11c.15.23.29.45.44.65-.3.24-.57.46-.79.66-1.07-.44-1.96-1.21-2.54-2.22,1-.14,1.99-.2,2.98-.17.09,0,.18-.01.27-.05.09-.03.17-.08.23-.14,1.26-1.18,2.52-2.36,3.79-3.53.19-.18.41-.38.32-.69-.09-.31-.36-.35-.62-.38-1.42-.11-2.81-.11-4.26,0,1.06-1.18,2.14-2.35,3.23-3.5.22-.23.45-.46.36-.77-.09-.31-.4-.3-.66-.29-1.37.12-2.69.33-4.02.64,0,0,0,0,0,0-.45.1-.94.22-1.36.32-.3.32-.58.67-.84,1.04h0c-.51.74-.92,1.56-1.18,2.42l1.58-.44s0,0,0,0c.45-.12.87-.24,1.05-.28.09-.02.18,0,.21.06.02.06,0,.14-.06.22-.34.41-.51.62-.85,1.02-.32.07-.89.2-1.37.31l-.82.19c-.07.45-.11.9-.11,1.36,0,.03,0,.05,0,.08,0,0,0,0,0,0,0,.06,0,.12,0,.19h0s0,.02,0,.02l.87-.27h0s-.81.91-.81.91c0,0,0,0,0,.01h0c.08.64.25,1.24.48,1.8h0s0,0,0,0c.09-.12.32-.39.6-.74l.46-.56s0,0,0,0c.56-.69,1.18-1.43,1.43-1.72.47-.07.71-.1,1.18-.15.09,0,.16.02.19.08.03.07,0,.14-.06.21-.79.84-1.58,1.69-2.37,2.54-.12-.23-.22-.47-.3-.72l-1.05,1.27c1.19,2.58,3.91,4.13,7.05,3.69,4.18-.58,7.51-4.46,7.44-8.66s-3.51-7.14-7.68-6.56ZM118.65,16.56c-.11-.1-.23-.2-.35-.3.28.06.54.14.8.25-.17.01-.32.03-.46.05ZM118.81,16.71c.19-.02.41-.04.65-.05.78.37,1.44.93,1.95,1.62-.44,0-.89.05-1.32.12-.37-.65-.8-1.22-1.28-1.69ZM120.96,20.47c-.21-.69-.47-1.33-.79-1.91.45-.08.91-.12,1.36-.11.5.75.83,1.65.91,2.64-.43-.02-.87.02-1.3.08-.05-.24-.12-.47-.19-.71ZM113.58,28.32c.21-.18.45-.38.72-.59.29.37.58.68.88.93-.56-.04-1.1-.15-1.6-.34ZM118.28,28.05c-.59.28-1.23.47-1.89.56-.31.04-.61.06-.91.06-.36-.26-.71-.61-1.05-1.05.3-.23.63-.46.99-.7.71-.46,1.62-.96,2.67-1.38.18.69.33,1.62.18,2.51ZM118.47,27.96c.1-.7.03-1.41-.07-1.96-.04-.19-.08-.36-.12-.53.87-.33,1.84-.6,2.88-.73-.06.44-.15.86-.27,1.26-.66.81-1.48,1.49-2.42,1.96ZM121.15,25.65c.07-.3.13-.61.18-.92.13-.02.27-.03.4-.04-.17.34-.36.66-.58.96ZM121.82,24.51c-.16.01-.31.03-.47.04.11-1.01.07-2.1-.17-3.2.42-.06.85-.09,1.27-.07,0,.09,0,.18.01.27.02,1.03-.22,2.04-.65,2.97Z"/>
    </g>
    <path class="cls-5" d="M123.53,17.39c1.08-1.39,2.67-2.39,4.45-2.64,3.31-.46,6.04,1.85,6.09,5.17s-2.59,6.38-5.9,6.84c-1.74.24-3.32-.28-4.44-1.32-.25.52-.55,1.02-.89,1.49,1.39,1.16,3.28,1.73,5.35,1.44,4.19-.58,7.54-4.46,7.47-8.67-.07-4.2-3.52-7.14-7.72-6.55-2.12.3-4.02,1.43-5.38,3.03.36.37.68.77.96,1.21Z"/>
    <path class="cls-2" d="M123.53,17.39c1.08-1.39,2.67-2.39,4.45-2.64,3.31-.46,6.04,1.85,6.09,5.17s-2.59,6.38-5.9,6.84c-1.74.24-3.32-.28-4.44-1.32-.25.52-.55,1.02-.89,1.49,1.39,1.16,3.28,1.73,5.35,1.44,4.19-.58,7.54-4.46,7.47-8.67-.07-4.2-3.52-7.14-7.72-6.55-2.12.3-4.02,1.43-5.38,3.03.36.37.68.77.96,1.21Z"/>
    <path class="cls-5" d="M103.5,20.53l-1.12-1.85,3.08-2.4,1.83-.25.25,15.21-2.13.29-.2-12.23-1.7,1.22Z"/>
    <path class="cls-3" d="M103.5,20.53l-1.12-1.85,3.08-2.4,1.83-.25.25,15.21-2.13.29-.2-12.23-1.7,1.22Z"/>
  </g>
</svg>